<?xml version="1.0" encoding="UTF-8" standalone="no"?>
<svg
   width="22"
   height="22"
   viewBox="0 0 22 22"
   fill="none"
   version="1.1"
   id="svg1"
   sodipodi:docname="taxi.svg"
   xml:space="preserve"
   inkscape:version="1.3.2 (091e20e, 2023-11-25, custom)"
   xmlns:inkscape="http://www.inkscape.org/namespaces/inkscape"
   xmlns:sodipodi="http://sodipodi.sourceforge.net/DTD/sodipodi-0.dtd"
   xmlns="http://www.w3.org/2000/svg"
   xmlns:svg="http://www.w3.org/2000/svg"><defs
     id="defs1" /><sodipodi:namedview
     id="namedview1"
     pagecolor="#ffffff"
     bordercolor="#999999"
     borderopacity="1"
     inkscape:showpageshadow="2"
     inkscape:pageopacity="0"
     inkscape:pagecheckerboard="0"
     inkscape:deskcolor="#d1d1d1"
     inkscape:zoom="12.952911"
     inkscape:cx="6.176218"
     inkscape:cy="17.332012"
     inkscape:window-width="1920"
     inkscape:window-height="1009"
     inkscape:window-x="-8"
     inkscape:window-y="-8"
     inkscape:window-maximized="1"
     inkscape:current-layer="svg1" /><style
     type="text/css"
     id="style1">
	.isometric_acht{fill:#F05A28;}
	.isometric_tien{fill:#7BD6C4;}
	.isometric_twaalf{fill:#569080;}
	.isometric_dertien{fill:#225B49;}
	.st0{fill:#FFBB33;}
	.st1{fill:#BE1E2D;}
	.st2{fill:#F29227;}
	.st3{fill:#FF7344;}
	.st4{fill:#F8F7C5;}
	.st5{fill:#F5DF89;}
	.st6{fill:#6B9086;}
	.st7{fill:none;}
	.st8{fill:#72C0AB;}
	.st9{fill:#AD9A74;}
	.st10{fill:#F2D76C;}
	.st11{fill:#F28103;}
	.st12{fill:#225B49;}
	.st13{fill:#7BD6C4;}
	.st14{fill:#F05A28;}
</style><style
     type="text/css"
     id="style1-2">
	.isometric_zeven{fill:#FF7344;}
	.isometric_acht{fill:#F05A28;}
	.isometric_negen{fill:#BE1E2D;}
	.isometric_twaalf{fill:#569080;}
	.isometric_dertien{fill:#225B49;}
	.st0{fill:#7BD6C4;}
	.st1{fill:#72C0AB;}
	.st2{fill:#F29227;}
	.st3{fill:#225B49;}
	.st4{fill:#F28103;}
	.st5{fill:#F8F7C5;}
	.st6{fill:#BE1E2D;}
	.st7{fill:#AD9A74;}
	.st8{fill:#F2D76C;}
	.st9{fill:#F5DF89;}
	.st10{fill:#80CCBE;}
</style><g
     id="g3"
     transform="matrix(0.91976814,0,0,0.91976814,-3.7714204,-4.3310467)">
	<polygon
   class="isometric_twaalf"
   points="7.437,28.73 14.492,24.59 14.492,10.875 18.44,8.64 18.44,4.73 7.437,11.082 "
   id="polygon1" />
	<path
   class="isometric_dertien"
   d="M 7.437,11.082 V 28.73 L 7.062,28.5 7,10.875 18.062,4.5 18.439,4.73 Z m 9.78,-1.738 V 8.028 l -8.557,4.94 v 1.875 l 5.832,-3.408 V 10.874 Z M 8.66,16.608 v 1.765 l 5.832,-3.415 v -1.761 z m 0,3.53 v 1.765 l 5.832,-3.422 V 16.72 Z m 0,3.529 v 1.765 l 5.832,-3.429 v -1.761 z"
   id="path1" />
	<polygon
   class="isometric_acht"
   points="14.506,28.73 14.506,11.082 25.508,4.73 25.131,4.5 14,10.875 14,28.5 "
   id="polygon2" />
	<polygon
   class="isometric_zeven"
   points="14.506,11.082 14.506,28.73 25.508,22.378 25.508,4.73 "
   id="polygon3" />
	<path
   class="isometric_negen"
   d="m 24.285,9.903 -8.557,4.94 v -1.875 l 8.557,-4.94 z m 0,1.765 -8.557,4.94 v 1.765 l 8.557,-4.94 z m 0,3.529 -8.557,4.94 v 1.765 l 8.557,-4.94 z m 0,3.53 -8.557,4.94 v 1.765 l 8.557,-4.94 z"
   id="path3" />
</g></svg>
